<?xml version="1.0" encoding="UTF-8"?>
<svg version="1.1" viewBox="0 0 1600 1496" width="1280" height="1280" xmlns="http://www.w3.org/2000/svg">
<path transform="translate(0)" d="m0 0h1600v1496h-1600v-1496z" fill="#FDFDFD"/>
<path transform="translate(1025,109)" d="m0 0c4.01 2.07 6.87 4.78 10 8 1.04 0.936 1.04 0.936 2.11 1.89 11.9 11 18.8 26.6 25.1 41.3 0.782 1.86 0.782 1.86 1.9 3.78 1.24 2.8 0.862 5.02 0.57 8.02 0.138 2.21 0.138 2.21 2.3 3.76 3.2 3.55 2.5 7.69 2.42 12.2 0.0787 4.92 1.13 6.77 4.45 10.3 2.48 3.82 1.93 8.73 1.96 13.1 0.0377 1.53 0.0377 1.53 0.0762 3.1 0.0586 2.51 0.0951 5.02 0.111 7.53h2c2.36 3.54 2.23 5.01 2.2 9.2-0.00645 1.21-0.0129 2.42-0.0195 3.66-0.0168 1.26-0.0335 2.53-0.0508 3.83-0.00902 1.27-0.018 2.55-0.0273 3.86-0.0236 3.15-0.0565 6.3-0.0977 9.45 0.959 0.464 0.959 0.464 1.94 0.938 2.06 1.06 2.06 1.06 3.06 2.06 0.118 1.8 0.167 3.61 0.189 5.42 0.0167 1.16 0.0334 2.32 0.0507 3.51 0.0204 1.89 0.0204 1.89 0.0411 3.82 0.0281 1.96 0.0562 3.92 0.0847 5.88 0.0587 4.16 0.109 8.31 0.16 12.5 0.0427 3.42 0.0873 6.84 0.137 10.3 0.0369 2.57 0.0692 5.14 0.0969 7.71 0.0167 1.16 0.0334 2.32 0.0507 3.51 0.0188 1.54 0.0188 1.54 0.038 3.11-0.107 2.28-0.107 2.28 1.15 3.32 2.33 0.0409 4.67 0.0424 7 0 0.322-1.55 0.322-1.55 0.65-3.12 1.23-4.27 3.77-6.92 6.94-9.92 0.821-0.807 0.821-0.807 1.66-1.63 1.74-1.7 3.49-3.39 5.25-5.07 1.75-1.7 3.5-3.41 5.25-5.12 1.08-1.06 2.17-2.11 3.27-3.16 2.31-2.23 4.2-4.29 5.99-6.97 1.59-0.159 1.59-0.159 3.22-0.322 4.97-0.892 6.9-2.98 10.3-6.53 0.611-0.61 1.22-1.22 1.85-1.85 2.01-2.01 3.99-4.04 5.98-6.08 1.39-1.41 2.79-2.81 4.19-4.21 3.67-3.69 7.32-7.4 11-11.1 3.71-3.77 7.44-7.53 11.2-11.3 6.02-6.07 12-12.2 18-18.2 1.43-1.45 2.86-2.91 4.29-4.36 0.485-0.537 0.969-1.07 1.47-1.63 1.53-1.37 1.53-1.37 4.74-2.1 5.14-1.72 7.75-4.69 11.4-8.58 0.704-0.723 1.41-1.45 2.13-2.19 3-3.08 5.96-6.18 8.93-9.29 2.18-2.27 4.37-4.52 6.56-6.77 0.988-1.05 0.988-1.05 2-2.12 4.33-4.45 7.83-6.47 13.8-8.32 1.74-1.5 1.74-1.5 2.94-3.25 3.59-3.91 7.74-5.69 12.6-7.69 0.724-0.306 1.45-0.613 2.2-0.929 5.59-2.21 10.4-3.09 16.3-1.13 5.64 3.76 10.6 9.1 12.7 15.7 1.06 7.97-1.33 16.4-5.15 23.4-2.15 2.71-4.16 3.32-7.44 4.18-3.29 1.2-5.41 3.51-7.86 5.95-2.04 1.65-3.55 2.43-5.91 3.46-5.61 2.69-9.48 7.14-13.7 11.6-1.59 1.66-3.18 3.31-4.77 4.95-0.693 0.729-1.39 1.46-2.1 2.21-1.75 1.59-1.75 1.59-3.75 1.59-0.309 0.804-0.309 0.804-0.625 1.62-1.91 3.29-4.42 5.97-7.38 8.38h-2c-0.33 0.99-0.66 1.98-1 3h-2c-0.381 0.862-0.381 0.862-0.77 1.74-1.37 2.52-2.92 4.32-4.92 6.38-0.643 0.683-1.29 1.37-1.95 2.07-2.36 1.8-2.36 1.8-5.64 2.57-5.22 1.73-7.97 4.97-11.7 8.93-1.34 1.4-2.68 2.8-4.03 4.2-0.66 0.687-1.32 1.37-2 2.08-2.62 2.62-5.4 5.02-8.24 7.41-2.47 2.23-4.52 4.73-6.57 7.34-0.405 0.424-0.81 0.848-1.23 1.29h-2c-0.264 0.59-0.529 1.18-0.801 1.79-1.24 2.29-2.53 3.77-4.39 5.59-0.616 0.601-1.23 1.2-1.87 1.82-2.42 2.24-4.91 4.36-7.46 6.45-1.74 1.49-1.74 1.49-3.48 4.36h-2c-0.227 0.557-0.454 1.11-0.688 1.69-1.74 3.06-3.62 5.04-6.31 7.31-1.07 0.248-2.14 0.495-3.25 0.75-5.64 1.88-8.8 5.95-12.8 10.2-0.583 0.486-1.17 0.972-1.77 1.47-1.5 1.51-1.5 1.51-1.15 3.91-0.123 3.75-1.8 4.89-4.46 7.43-0.812 0.79-1.62 1.58-2.46 2.39-2.16 1.79-2.16 1.79-4.16 1.79-1.87 3.59-3.43 7.28-5 11 1.65 0.33 3.3 0.66 5 1 0.289-0.639 0.577-1.28 0.875-1.94 1.12-2.06 1.12-2.06 3.12-3.06 2.59-0.101 5.16-0.142 7.75-0.125 0.755 0.00411 1.51 0.00822 2.29 0.0125 16 0.156 16 0.156 21 1.11 0.66 0.99 1.32 1.98 2 3 2.65 0.373 5.09 0.558 7.75 0.625 0.775 0.033 1.55 0.0661 2.35 0.1 2.49 0.105 4.97 0.192 7.46 0.275 19 0.642 19 0.642 25.6 3.29 3.14 1.21 6.46 1.51 9.78 1.96 30.2 4.65 62.3 15.4 90.3 27.8 3.73 1.64 7.46 3.22 11.3 4.69 6.18 2.46 12.2 5.35 18.1 8.26 1.91 0.928 3.82 1.85 5.74 2.77 3.55 1.71 7.08 3.46 10.6 5.22 0.931 0.461 1.86 0.922 2.82 1.4 0.802 0.417 1.6 0.834 2.43 1.26 0.677 0.348 1.35 0.696 2.05 1.05 3.36 2.54 4.41 6.42 5.7 10.3 0.412 0.846 0.825 1.69 1.25 2.56 1.09 3.53 1.4 6.81 0.75 10.4-1.53 2.64-3.51 4.63-5.69 6.75-0.53 0.55-1.06 1.1-1.61 1.67-9.18 9.39-9.18 9.39-14.9 9.82-4.09-0.262-6.31-1.15-9.89-3.09-1.14-0.605-2.27-1.21-3.45-1.83-1.18-0.646-2.36-1.29-3.55-1.94-15-8.65-15-8.65-31.2-14.5-4.42-1.03-8.19-2.75-12.3-4.68-8.01-3.65-16-6.62-24.4-9.19-0.755-0.234-1.51-0.469-2.29-0.71-16.4-5.08-32.9-9.58-49.7-13.3-0.991-0.253-0.991-0.253-2-0.51-6.7-1.64-13.2-1.86-20.1-1.97-0.852-0.0264-1.7-0.0529-2.58-0.0801-0.765-0.0135-1.53-0.0269-2.32-0.0408-2.03-0.401-2.03-0.401-3.35-1.88-2.23-2.01-3.68-2.01-6.65-2.2-0.982-0.0643-1.96-0.129-2.97-0.195-4.88-0.197-9.75-0.247-14.6-0.221-1.05 0.00141-2.1 0.00283-3.18 0.00429-3.31 0.00554-6.62 0.0181-9.93 0.0309-2.26 0.00502-4.52 0.00958-6.79 0.0137-5.51 0.0109-11 0.0276-16.5 0.0488-0.33 1.32-0.66 2.64-1 4-0.645 0.0251-1.29 0.0501-1.96 0.0759-2.93 0.116-5.86 0.239-8.79 0.362-1.52 0.059-1.52 0.059-3.08 0.119-0.98 0.0419-1.96 0.0838-2.97 0.127-0.901 0.0367-1.8 0.0733-2.73 0.111-2.3 0.191-4.3 0.43-6.47 1.21-1.14 2.3-1.14 2.3-2 5-0.979 1.68-1.98 3.35-3 5 0.618 0.606 1.24 1.21 1.87 1.84 5.84 5.74 11.7 11.5 17.5 17.3 2.99 2.96 5.98 5.92 8.99 8.87 2.9 2.85 5.79 5.71 8.68 8.58 1.1 1.09 2.2 2.17 3.31 3.25 10.5 10.3 10.5 10.3 12.9 17.4 1.27 3.19 3.72 5.1 6.24 7.34 3.27 3.04 5.94 5.64 7.44 9.94 1.65 4.65 4.6 7.27 8.12 10.6 4.36 4.07 6.97 7.26 8.32 13.1 0.884 2.66 2.78 3.72 5 5.29 3.06 2.99 4.55 7.01 6.32 10.8 1.27 2.86 1.27 2.86 3.3 5.74 0.402 1.42 0.402 1.42 0.812 2.88 0.956 3.22 0.956 3.22 3.41 5.16 3.92 3.78 6.04 8.65 8.47 13.5 0.521 1.02 1.04 2.03 1.58 3.08 4.3 8.43 8.38 17 12.4 25.5 2.19 4.64 4.42 9.25 6.7 13.8 0.31 0.632 0.619 1.26 0.938 1.92 1.46 2.93 2.96 5.52 4.91 8.15 1.77 3 1.77 3 1.75 6.36 0.0316 4.91 1.94 7.76 4.4 11.9 3.29 5.82 5.64 10.8 6.21 17.6 0.265 2.3 0.265 2.3 1.89 4.16 1.87 2.51 2.07 4.33 2.46 7.42 0.575 3.7 0.902 5.4 3.12 8.5 2.65 4.27 2.37 8.01 2.6 12.9 0.398 3.72 1.5 6.04 3.36 9.21 1.51 3.05 1.91 6.23 2.39 9.57 0.472 2.5 0.472 2.5 2.1 4.68 1.7 3.11 1.85 4.97 1.86 8.49 0.0174 1.09 0.0348 2.18 0.0527 3.3 0.00911 2.28 0.0143 4.56 0.0156 6.84 0.107 6.21 0.209 9.39 4.56 14.1 0.469 3.34 0.469 3.34 0.5 6.94 0.242 5.83 1.23 8.25 4.5 13.1 0.372 3.24 0.5 6.42 0.531 9.68 0.265 3.47 0.265 3.47 2.46 6.55 2.24 3.8 2.56 6.91 2.65 11.4 0.0201 0.723 0.0402 1.45 0.0609 2.19 0.0613 2.36 0.0956 4.73 0.13 7.09 0.0375 1.65 0.0766 3.3 0.117 4.95 0.102 4.32 0.182 8.64 0.256 13 0.0803 4.42 0.182 8.84 0.283 13.3 0.193 8.65 0.362 17.3 0.516 26 4.69 0.109 7.47-0.368 11.7-2.52 1.04-0.528 2.08-1.06 3.15-1.6 1.07-0.559 2.14-1.12 3.25-1.69 1.08-0.547 2.15-1.09 3.26-1.66 5.75-2.93 5.75-2.93 11.3-6.19 4.07-2.31 8.5-1.82 13.1-1.94 3.24-0.079 3.24-0.079 4.91-1.91 3.68-2.33 7.29-1.93 11.6-1.9 0.893-0.00287 1.79-0.00574 2.7-0.0087 1.89-0.00204 3.77 0.00348 5.66 0.016 2.88 0.016 5.76 1.56e-4 8.64-0.019 1.83 0.00198 3.67 0.00583 5.5 0.0117 0.858-0.00607 1.72-0.0121 2.6-0.0184 4.86 0.0569 7.62 0.581 11.7 3.42 2.82 0.267 5.49 0.41 8.31 0.438 5.64 0.177 9.95 0.456 14.8 3.61 2.17 1.09 3.69 1.21 6.1 1.32 5.05 0.474 8.61 2.24 12.9 4.82 0.697 0.404 1.39 0.808 2.11 1.22 3.55 2.1 6.82 4.26 9.89 7.03 2.62 2.71 2.62 2.71 5.64 3.34 4.25 1.61 6.66 4.09 9.8 7.29 0.604 0.602 1.21 1.2 1.83 1.82 1.27 1.27 2.54 2.55 3.8 3.83 1.92 1.95 3.85 3.87 5.79 5.8 1.24 1.24 2.47 2.49 3.71 3.73 0.573 0.57 1.15 1.14 1.74 1.73 3.64 3.73 6.15 7.39 8.57 12 1.82 3.39 3.88 5.96 6.5 8.75 3.11 3.47 4.45 6.36 5.68 10.8 1.59 4.77 4.22 10.8 7.82 14.4 0.132 1.39 0.231 2.79 0.312 4.19 0.336 3.5 0.639 4.74 2.69 7.75 2.42 3.7 2.48 6.26 2.53 10.6 0.283 2.64 0.283 2.64 2.47 4.7 2.48 3.42 2.51 5.28 2.52 9.46 0.00701 0.653 0.014 1.31 0.0212 1.98 0.0175 2.15 0.00597 4.29-0.00757 6.44 0.0027 1.5 0.00658 3 0.0116 4.5 0.00589 3.14-0.00265 6.28-0.0214 9.43-0.0228 4.01-0.00969 8.03 0.0143 12 0.0145 3.1 0.00983 6.2-5.11e-4 9.3-0.00266 1.48 5.62e-4 2.96 0.00992 4.44 0.0382 7.73 0.0666 13.7-4.55 20.2 0.0206 1.13 0.0412 2.27 0.0625 3.44-0.0664 3.78-0.442 4.49-2.5 7.44-2.08 3-2.87 4.98-3.06 8.62-0.312 5.18-2.52 8.37-5.5 12.5-0.66 1.01-1.32 2.02-2 3.06-1.86 2.73-3.78 5.39-5.75 8.03-1.36 1.95-1.36 1.95-2.33 4.5-2.61 4.63-6.06 8.02-9.8 11.8-1.16 1.18-1.16 1.18-2.35 2.37-1.64 1.65-3.28 3.3-4.93 4.94-2.51 2.51-4.99 5.03-7.48 7.56-1.6 1.6-3.2 3.21-4.8 4.81-1.11 1.13-1.11 1.13-2.23 2.28-4.56 4.5-8.19 6.79-14.3 8.67-2.25 1.6-2.25 1.6-4 3.44-3.73 3.47-7.39 5.49-12 7.56-1.8 0.866-3.59 1.74-5.38 2.62-1.25 0.607-1.25 0.607-2.52 1.23-2.23 1.09-2.23 1.09-4.1 3.15-1.99 0.0326-3.98 0.0592-5.96 0.0195-2.53-0.0243-4.64 0.134-7.04 0.98-1.15 2-1.15 2-2 4-0.87-0.0314-0.87-0.0314-1.76-0.0635-2.64-0.0835-5.29-0.135-7.93-0.187-0.912-0.0335-1.82-0.067-2.76-0.102-5.81-0.0845-8.06 0.502-12.5 4.35-2.82 0.729-5.6 0.875-8.5 1-0.746 0.0632-1.49 0.126-2.26 0.191-3.99 0.219-5.78 0.0942-9.27-2.07-1.97-2.12-1.97-2.12-1.97-4.12-0.843 0.239-0.843 0.239-1.7 0.483-4.15 0.936-8.37 0.828-12.6 0.892-1.39 0.0561-1.39 0.0561-2.8 0.113-6.79 0.0868-9.62-1.31-14.9-5.49-2.45-0.453-2.45-0.453-4.69-0.0625-2.2 0.277-2.2 0.277-4.31 0.0625-1.35-1.32-2.68-2.66-4-4-2.45-1.29-4.85-2.46-7.38-3.56-13.2-5.95-13.2-5.95-16-9.5-2.95-3.31-4.19-3.26-8.36-3.98-4.36-1.85-7.18-5.97-10.2-9.53-1.87-2.48-1.87-2.48-4.1-3.43v-2c-0.536-0.206-1.07-0.412-1.62-0.625-2.85-1.65-4.72-3.7-6.91-6.13-1.53-1.57-1.53-1.57-4.46-1.24-0.0258 0.641-0.0516 1.28-0.0781 1.94-0.343 5.23-0.99 8.77-3.9 13.1-1.17 2.24-1.5 4.12-1.87 6.62-0.99 5.29-2.94 9.37-5.59 14-4.52 8.24-8.65 16.6-12.6 25.1-8.37 17.8-8.37 17.8-14.6 24.5-1.94 2.37-3.08 4.98-4.37 7.75-1.6 3.09-3.61 5.41-6 7.93h-2c-0.402 1.89-0.402 1.89-0.812 3.81-1.9 5.88-6 9.25-10.5 13.2-2.27 2.21-3.24 4.13-4.32 7.1-2.49 5.77-6.45 9.48-11 13.7-1.71 1.66-3.41 3.32-5.12 4.98-2.68 2.58-5.36 5.15-8.05 7.72-2.61 2.5-5.19 5.02-7.78 7.54-0.803 0.757-1.61 1.51-2.43 2.29-4.36 4.27-6.99 7.65-8.41 13.6-1.14 3.55-3.59 4.99-6.62 6.94-1.36 0.531-2.74 1.03-4.12 1.5-3.91 1.34-5.72 2.86-7.88 6.5-0.842 2.33-1.43 4.58-2 7-1.13 0.143-2.27 0.286-3.44 0.434-7.02 1.75-11.2 8-15.9 13.2-4.99 5.32-7.47 7-14.7 7.39-1.09 1.83-1.09 1.83-2 4-2.19 2.65-4.64 5.06-7.06 7.5-0.631 0.664-1.26 1.33-1.91 2.01-3.3 3.33-6.09 5.72-10.5 7.42-5.63 2.23-9.07 6.23-13.1 10.6-5.2 5.68-8.99 9.23-16.4 11.4-1.35 0.98-2.68 1.98-4 3-1.63 0.697-3.25 1.39-4.89 2.05-2.56 1.15-4.97 2.51-7.42 3.88-3.61 2.02-7.1 3.64-11 5-4.43 1.66-6.33 3.74-9.12 7.46-2.42 2.49-5.17 3.1-8.46 3.99-2.66 0.779-4.75 2.18-7.11 3.62-0.887 0.144-1.77 0.289-2.69 0.438-0.763 0.186-1.53 0.371-2.31 0.562-0.289 0.66-0.577 1.32-0.875 2-0.371 0.66-0.742 1.32-1.12 2-2.33 0.345-4.67 0.678-7 1-0.639 0.639-1.28 1.28-1.94 1.94-2.26 2.26-3.16 2.48-6.19 3.12-4.09 0.526-4.09 0.526-5.88 3.94-3.36 0.42-6.65 0.44-10 0.496-0.98 0.166-1.96 0.333-2.97 0.504-1.2 1.93-1.2 1.93-2 4-1.88 0.723-1.88 0.723-4 1.06-2.11 0.293-2.11 0.293-4 0.938-0.66 0.99-1.32 1.98-2 3-3.26 0.512-3.26 0.512-7.12 0.688-1.28 0.0657-2.56 0.131-3.88 0.199-0.987 0.0374-1.97 0.0748-2.99 0.113-0.33 1.32-0.66 2.64-1 4-1.18 0.0258-2.36 0.0516-3.58 0.0781-1.56 0.0563-3.11 0.114-4.67 0.172-0.777 0.0142-1.55 0.0284-2.36 0.043-5.18 0.221-6.72 0.972-10.4 4.71-2.79 0.372-5.27 0.56-8.06 0.562-5.22-0.159-5.22-0.159-9.87 1.84-1.13 1.62-1.13 1.62-2.07 3.6-0.984-0.0116-1.97-0.0232-2.98-0.0352-8.47-0.0683-16.9 0.0643-25.4 0.41-0.909 0.0309-1.82 0.0617-2.75 0.0935-0.852 0.0388-1.7 0.0775-2.58 0.117-0.756 0.0314-1.51 0.0628-2.29 0.0952-2.31 0.226-2.31 0.226-5 2.32-4.43 0.593-8.91 0.652-13.4 0.812-1.23 0.0638-2.46 0.128-3.73 0.193-1.19 0.0458-2.38 0.0915-3.6 0.139-1.09 0.0449-2.17 0.0898-3.29 0.136-3-0.281-3-0.281-5.22-1.77-3.48-1.89-6.45-1.94-10.3-1.93-0.742-0.00859-1.48-0.0172-2.25-0.026-2.45-0.0251-4.91-0.0294-7.36-0.034-1.73-0.0143-3.46-0.0301-5.19-0.0472-4.57-0.0419-9.13-0.0668-13.7-0.0875-4.56-0.0225-9.11-0.0568-13.7-0.0919-0.886-0.00681-1.77-0.0136-2.69-0.0206-9.21-0.0726-18.4-0.161-27.6-0.276-1.03-0.0121-1.03-0.0121-2.09-0.0244-4.08-0.05-8.16-0.137-12.2-0.249-0.953-0.0127-1.91-0.0254-2.89-0.0385-6.25-0.221-6.25-0.221-9.09-2.7-0.56-0.655-1.12-1.31-1.7-1.98-2.32-0.57-2.32-0.57-4.81-0.469-1.37-0.0213-1.37-0.0213-2.76-0.043-1.91 0.0078-3.81 0.0156-5.72 0.0234-5.94-0.0922-8.04-0.769-12.7-4.51-3.49-0.552-6.97-0.515-10.5-0.5-6.89 0.0284-10.1-0.0884-15.5-4.5-4.17-0.693-8.39-0.507-12.6-0.488-5.84-0.0962-8.83-0.83-13.4-4.51-2.58-0.968-4.15-0.991-6.94-0.812-3.89-0.238-5.14-1.71-8.06-4.19-2.43-0.753-2.43-0.753-5-1-4.42-0.542-6.52-1.32-10-4-5.97-2.98-12-5.65-18.7-6.44-3.68-0.624-3.88-1.07-6.31-3.56-2.05-1.19-2.05-1.19-4.38-2.24-0.89-0.42-1.78-0.84-2.7-1.27-0.966-0.449-1.93-0.898-2.93-1.36-1-0.475-2-0.949-3.04-1.44-5.12-2.43-10.3-4.83-15.4-7.2-1.83-0.847-3.66-1.7-5.48-2.56-2.34-1.09-4.68-2.18-7.02-3.25-5.82-2.74-10.4-5.32-14.6-10.2-2.32-2.36-5.41-3.19-8.43-4.46-1.37-1.13-2.7-2.3-4-3.5-2.58-2.38-4.2-3.59-7.5-5-3.27-1.4-4.78-2.51-7.31-4.88-3.64-3.37-7.33-5.3-11.8-7.37-2.95-1.55-5.17-3.48-7.52-5.82-1.98-1.65-1.98-1.65-5.21-2.76-3.92-1.6-6.56-4.15-9.4-7.23-4.77-5.22-4.77-5.22-11.1-8.23-3.84-1.46-6.21-3.67-9.03-6.54-0.55-0.543-1.1-1.09-1.67-1.65-1.81-1.79-3.6-3.6-5.4-5.4-1.26-1.26-2.52-2.51-3.78-3.77-2.64-2.63-5.27-5.27-7.89-7.91-3.35-3.38-6.72-6.73-10.1-10.1-2.61-2.59-5.2-5.19-7.79-7.79-1.24-1.24-2.48-2.48-3.72-3.71-1.74-1.73-3.48-3.48-5.2-5.23-0.509-0.501-1.02-1-1.54-1.52-3.2-3.28-5.23-6.53-7.09-10.7-1.7-3.33-4.3-5.85-6.89-8.49-10.2-10.6-10.2-10.6-12.6-15.5-1.6-3.17-3.34-4.91-5.9-7.34-7.95-8.5-12.5-19.2-17.6-29.6-0.75-1.5-1.5-2.99-2.26-4.48-1.61-3.19-3.21-6.4-4.79-9.6-1.36-2.74-2.72-5.47-4.09-8.2-0.687-1.37-1.37-2.75-2.05-4.13-1.4-2.82-2.81-5.59-4.38-8.32-3.46-6.09-3.81-11.1-4.04-18.1-0.471-3.95-1.75-5.41-4.32-8.27-2.01-3.61-1.15-7.84-0.98-11.9-0.116-4.29-1.18-5.97-4.08-9.04-2.96-1.48-5.77-1.12-9.06-1.19-6.28-0.25-10.1-1.63-15-5.53-2.86-1.92-5.55-1.34-8.91-1.28-1.74-1.09-1.74-1.09-3.5-2.5-2.7-2.16-3.17-2.5-6.81-2.5-4.48 0-6.79-1.28-10.7-3.38-2.32-1.24-4.63-2.4-7.01-3.52-0.703-0.336-1.41-0.672-2.13-1.02-1.39-0.662-2.78-1.32-4.17-1.96-4.87-2.36-7.96-5.22-11.7-9.12-0.949-0.309-1.9-0.619-2.88-0.938-5.33-1.81-9.15-5.91-12.9-10-4.19-4.56-7.07-6.08-13.2-7.05-0.251-1.75-0.251-1.75-0.508-3.53-1.41-5.61-5.15-8.29-9.37-12-7.07-6.59-11.9-13.3-16.1-22l-1.51-3.04c-2.47-5.3-3.84-9.73-4.18-15.6-0.478-2.93-2.46-4.65-4.31-6.9-0.504-3.59-0.504-3.59-0.562-7.5 0.0634-5.19 0.0634-5.19-1.94-9.78-1.92-3.47-1.89-5.93-1.9-9.89-0.00287-0.674-0.00574-1.35-0.0087-2.04-0.00203-1.42 0.00344-2.83 0.016-4.25 0.0161-2.17 9.99e-5 -4.34-0.019-6.5 0.00198-1.38 0.00582-2.76 0.0117-4.14 0.00338-1.25 0.00677-2.5 0.0103-3.79 0.439-3.51 0.987-3.79 3.39-6.11 0.425-2.79 0.425-2.79 0.336-5.95l0.0391-3.57c0-2.47-0.00771-4.94-0.0234-7.41 0.0981-7.5 0.627-11.4 5.65-17.1 0.944-1.87 0.944-1.87 1.69-3.81 1.31-3.19 1.31-3.19 3.31-5.19l0.938-3.38c1.06-3.62 1.06-3.62 2.69-5.56 1.85-2.77 1.53-4.82 1.29-8.06 0.113-2.52 0.727-3.87 2.09-6 1.87-1.68 1.87-1.68 4-3.31 3.9-3.28 4.82-5.69 6-10.7 2.69-4.24 4.27-6 9.12-7.19 7.34-2.01 12.7-8.95 17.4-14.7 1.49-1.16 1.49-1.16 3.93-1.09 2.69 0.197 2.69 0.197 4.6-1.83 0.669-0.781 1.34-1.56 2.03-2.37 5.69-6.04 12.3-9.35 20.2-11.9 2.82-0.812 2.82-0.812 5.09-2.5 2.74-1.47 4.16-1.66 7.19-1.88 4.35-0.338 6.18-1.69 9.5-4.56 3.04-0.759 5.45-1.05 8.56-0.75 2.72-0.00247 2.72-0.00247 4.66-2.74 3.5-3.17 4.93-3.11 9.59-2.97 1.08 0.0281 1.08 0.0281 2.18 0.0568 2.67 0.0906 5.33 0.238 8 0.396 1.65 0.0983 1.65 0.0983 3.34 0.198 8.79 0.548 17.6 1.2 26.4 1.88 3.02 0.232 6.04 0.459 9.06 0.686 9.05 0.681 18.1 1.38 27.2 2.08 3.21 0.248 6.42 0.495 9.63 0.741 14.2 1.09 28.3 2.23 42.4 3.42 0.829 0.0692 1.66 0.138 2.51 0.21 4.51 0.377 9.01 0.765 13.5 1.17 1.87 0.169 3.75 0.329 5.62 0.489 16 1.52 16 1.52 22 6.21 0.608 0.755 1.22 1.51 1.84 2.29 0.629 0.75 1.26 1.5 1.91 2.27 4 5.9 4.24 11.4 3.59 18.4-1.5 5.88-4.93 10.3-9.52 14.1-4.65 2.52-8.21 2.49-13.4 2.39-1.06-0.0106-2.12-0.0213-3.21-0.0322-17.5-0.38-35-2.29-52.5-3.89-9.6-0.876-19.2-1.69-28.8-2.51-2.97-0.253-5.94-0.508-8.91-0.765-36.7-4.4-36.7-4.4-72.5 1.9-2.37 0.883-4.77 1.66-7.18 2.44-14.3 4.66-25.6 10.8-37 20.8-2.41 2.07-4.8 3.9-7.42 5.69-4.36 3.21-6.86 7.24-9.56 11.9l-1.46 2.32c-13.2 22.2-19.5 52.6-13.2 77.8 6.41 21.5 19.5 40.7 37.6 53.9 0.528 0.387 1.06 0.773 1.6 1.17 10.2 7.36 20.9 12.8 32.4 17.8 0.671 0.294 1.34 0.588 2.03 0.891 15.2 6.59 30.6 10.6 47 13.1 1.25 0.263 1.25 0.263 2.52 0.532 4.97 0.669 9.89 0.573 14.9 0.534 1.14-0.00467 2.28-0.00935 3.46-0.0142 2.48-0.0105 4.95-0.0231 7.43-0.0377 3.92-0.022 7.83-0.0361 11.8-0.0477 11.1-0.0334 22.3-0.0751 33.4-0.138 6.81-0.0383 13.6-0.0607 20.4-0.0743 2.6-0.00806 5.19-0.0217 7.79-0.0409 3.63-0.0265 7.26-0.0344 10.9-0.0381 1.07-0.0124 2.14-0.0247 3.25-0.0374 6.38 0.0172 11 0.56 16 4.94 5.45 6.53 7.78 12.2 7.48 20.8-0.693 6.6-3.75 10.8-8.46 15.2-6.71 5.33-17.4 4.58-25.6 4.65-0.83 0.0099-1.66 0.0198-2.52 0.03-2.71 0.0313-5.42 0.0562-8.13 0.0811-1.89 0.0206-3.79 0.0416-5.68 0.063-4.96 0.0549-9.91 0.104-14.9 0.153-5.07 0.0504-10.1 0.106-15.2 0.161-9.93 0.107-19.9 0.209-29.8 0.307 0.609 2.51 1.22 5.02 1.84 7.52 0.169 0.699 0.339 1.4 0.513 2.12 8.1 32.8 28 63.1 48.6 89.4 0.695 0.891 1.39 1.78 2.11 2.7 9.26 11.6 19.7 22.4 30.4 32.7 1.2 1.17 2.36 2.4 3.5 3.63v2l1.74 0.715c2.76 1.57 4.33 3.43 6.38 5.85 8.8 9.97 19.1 17.8 29.7 25.8 2.1 1.58 4.19 3.17 6.28 4.76 12.6 9.56 25.5 18.5 38.9 26.9 1.33 0.836 2.66 1.67 3.98 2.51 1.42 0.893 2.84 1.79 4.27 2.68 0.662 0.416 1.32 0.833 2.01 1.26 3.6 2.25 7.24 4.43 10.9 6.52 1.95 1.12 3.88 2.28 5.8 3.44 30.3 18.2 64.4 32.2 99 39.6 1.08 0.232 2.15 0.464 3.26 0.704 4.83 1.04 9.66 2.08 14.5 3.1 6.76 1.43 13.5 2.94 20.2 4.5 27.5 6.38 55.3 7.63 83.4 8.19 10.1 0.203 20.2 0.443 30.4 1.02 48.1 2.72 91.9-4.67 137-23 3.12-1.28 6.25-2.54 9.38-3.79 13.6-5.42 26.8-11 39.3-18.7 1.52-0.946 1.52-0.946 3.07-1.91 2.06-1.28 4.12-2.57 6.18-3.86 3.88-2.36 7.88-4.47 11.9-6.6 9.27-4.95 17.7-9.94 25.9-16.6 1.22-0.971 2.44-1.94 3.66-2.91 5.78-4.58 11.5-9.23 17.2-13.9 5.61-4.61 11.3-9.07 17.1-13.5 0.538-0.41 1.08-0.82 1.63-1.24 1.52-1.16 3.05-2.32 4.58-3.47 1.27-0.999 2.54-2.01 3.8-3.02 0.876-0.7 1.75-1.4 2.65-2.12 9.48-7.79 18.1-16.4 26.7-25.1 2.48-2.5 4.97-4.99 7.46-7.48 1.6-1.61 3.21-3.22 4.81-4.83 1.1-1.1 1.1-1.1 2.22-2.22 4.03-4.07 7.9-8.22 11.6-12.6 1.9-2.21 3.87-4.36 5.84-6.52 4.73-5.25 9.21-10.7 13.6-16.2 0.63-0.781 0.63-0.781 1.27-1.58 7.67-9.52 14.8-19.3 21.7-29.4 0.486-0.701 0.972-1.4 1.47-2.12 10.1-14.7 17.3-30.6 24.5-46.9 0.518-1.14 1.04-2.28 1.57-3.45 3.93-8.84 6.83-17.8 9.49-27 0.436-1.5 0.873-3 1.31-4.5 2.69-9.3 5.13-18.6 7.1-28.1 1.27-6.1 3.04-11.9 5.22-17.7 2.7-7.52 4.16-15.3 5.75-23.1 0.322-1.58 0.645-3.16 0.967-4.74 0.676-3.32 1.35-6.64 2.01-9.97 0.669-3.33 1.35-6.65 2.04-9.97 6.57-31.6 10.4-63.1 12.1-95.4 0.281-4.76 0.821-9.41 1.53-14.1 1.26-9.05 1.27-18 1.21-27.1-0.00343-0.887-0.00687-1.77-0.0104-2.69-0.0524-11.7-0.236-23.3-0.823-34.9-0.098-1.95-0.182-3.91-0.265-5.86-0.756-12.6-3.48-24.9-6.15-37.2-0.384-1.79-0.384-1.79-0.777-3.61-1.95-9-3.95-18-5.97-27-0.229-1.02-0.229-1.02-0.463-2.05-6.63-29.4-13.8-58.3-24.8-86.4-0.377-0.967-0.754-1.93-1.14-2.93-11.1-28.1-24.3-56.7-40.6-82.2-1.47-2.29-2.91-4.6-4.36-6.91-5.8-9.21-11.7-18.4-17.8-27.4-0.507-0.754-1.01-1.51-1.54-2.28-3.03-4.42-6.28-8.46-9.85-12.4-2.45-2.78-4.67-5.71-6.92-8.65-4.82-6.21-9.94-12-15.3-17.7-1.48-1.58-2.94-3.17-4.4-4.77-8.26-9.05-16.6-18-25.9-25.9-2.51-2.17-4.95-4.42-7.39-6.68-4.57-4.17-9.27-8.11-14.1-12-2.36-1.94-4.61-3.95-6.85-6.02-64.7-57.4-161-72.3-244-78.1-1.01-0.0716-1.01-0.0716-2.04-0.145-57-3.95-112 2.61-167 19.1-0.884 0.265-1.77 0.53-2.68 0.804-33.2 10.1-60.6 28.9-87.7 50-1.63 1.26-3.27 2.52-4.91 3.77-13.4 10.2-26.5 20.5-37.6 33.2-4.23 4.65-7.81 7.93-14.3 8.55-7.17 0.239-13 0.372-18.9-4.36-5.4-5.61-8.21-10.7-8.62-18.6 0.377-6.6 2.14-9.79 6.75-14.4 1.04-1.07 2.08-2.13 3.12-3.2 2.75-2.8 5.55-5.56 8.36-8.31 1.43-1.4 2.83-2.81 4.24-4.23 2.63-2.6 5.45-4.9 8.29-7.26 2.33-2.27 4.6-4.57 6.81-6.95 5.8-6.1 5.8-6.1 9.94-7.86 4.74-2.06 8.17-5.61 11.8-9.22 2.55-2.48 4.62-4.03 7.92-5.43 4.32-1.87 7.08-4.36 10.4-7.6 0.87-0.813 0.87-0.813 1.76-1.64 3.08-2.83 3.08-2.83 5.37-6.29l3.25-0.312c4.56-0.836 5.73-2.27 8.75-5.69 4.71-4.43 10.5-6.76 16.2-9.44 6.41-2.98 12.7-5.97 18.8-9.62 2.89-1.37 5.6-1.4 8.74-1.57 3.49-0.58 6.07-2.42 9.05-4.24 2.3-1.18 3.96-1.54 6.52-1.76 3.61-0.0381 3.61-0.0381 5.62-1.88 2.38-1.73 3.49-1.74 6.38-1.94 3.97-0.308 6.11-1.39 9.47-3.59 4.26-1.88 9.1-1.97 13.7-2.39 3.48-0.346 3.48-0.346 5.86-2.09 4.01-2.27 8.06-2.21 12.6-2.5 6.72-0.317 6.72-0.317 13-2.5 4.71-2.29 9.48-2.26 14.7-2.57 2.04-0.129 4.09-0.266 6.13-0.41 0.899-0.0542 1.8-0.108 2.72-0.164 3.08-0.432 6.32-1.1 8.58-3.36 8.61-1.36 17.4-1.15 26.1-1.13 1.45-6.77e-4 2.9-0.00165 4.35-0.0029 3.03-0.00147 6.07 6.39e-4 9.1 0.00534 3.81 0.00563 7.63 0.00235 11.4-0.00342 14-0.0182 28 0.0155 42 0.517 0.986 0.0304 1.97 0.0607 2.99 0.092 0.893 0.0381 1.79 0.0762 2.71 0.116 0.768 0.0306 1.54 0.0613 2.33 0.0928 1.99 0.317 1.99 0.317 4.99 2.32 3.49 0.899 6.87 1.17 10.5 1.32 42.6 2.17 86.2 9.81 127 23.7 0.839 0.282 1.68 0.563 2.54 0.854 11 3.73 21.6 8.34 32.1 13.3 4.98 2.35 9.86 4.38 15.1 6.04 4.36 1.52 8.48 3.58 12.6 5.6 0.922 0.445 1.84 0.89 2.8 1.35 17.7 8.59 17.7 8.59 22.3 13.2 4.42 3.83 4.42 3.83 15.6 3.69v-29c0.99-0.33 1.98-0.66 3-1 1.22-2.43 1.13-4 1.13-6.72 0.00315-0.982 0.0063-1.96 0.00955-2.98-0.00202-1.07-0.00405-2.14-0.00613-3.24 9.57e-4 -1.1 0.00191-2.2 0.0029-3.34 6.82e-4 -2.34-0.00117-4.68-0.00534-7.02-0.0053-3.54-8.22e-5 -7.09 0.00635-10.6-6.62e-4 -2.28-0.00194-4.55-0.00391-6.83 0.00202-1.05 0.00405-2.09 0.00613-3.17 0.657-14.1 0.657-14.1-5.14-26.1-0.375-3.23-0.375-3.23-0.215-6.84 0.0354-1.31 0.0709-2.62 0.107-3.97 0.0807-2.07 0.17-4.13 0.265-6.19 0.742-7.7 0.742-7.7-1.28-14.9-0.457-0.441-0.915-0.881-1.39-1.34-3.44-3.87-2.88-6.56-2.69-11.6 0.13-2.16 0.26-4.31 0.391-6.47 0.416-5.51 0.416-5.51-1.29-10.6-0.453-0.481-0.905-0.962-1.37-1.46-3.29-3.53-3.1-5.54-3.1-10.3-0.00597-5.93-0.8-7.91-4.44-12.4-0.469-3.52-0.469-3.52-0.5-7.38-0.188-6.05-0.989-9.67-4.5-14.6-0.65-1.58-0.65-1.58-1.31-3.19-4.11-9.65-9.36-17.1-17.2-24.1-4.7-4.33-7.08-8.79-7.82-15.2 0.831-7.58 4.75-12.4 10.3-17.4 6.99-5.06 14.6-5.37 22.9-4.12z" fill="#000100"/>
<path transform="translate(1409 904)" d="m0 0c24 23.5 38.3 54.3 38.8 88-0.247 27.9-10.8 54.8-30.1 75.1h-2c-0.33 0.99-0.66 1.98-1 3-1.46 1.47-1.46 1.47-3.38 3.06-2.43 2.04-4.79 4.1-7.07 6.3-19.8 19-42.8 24.4-69.8 23.9-25.5-0.857-46.6-11.9-65.4-28.8-1.41-1.56-1.41-1.56-1.41-3.56h-2c-7.39-7.64-12.7-16.6-17.7-25.9-0.529-0.982-1.06-1.96-1.6-2.98-0.485-0.945-0.971-1.89-1.47-2.86-0.433-0.838-0.865-1.68-1.31-2.54-2.48-7.18-0.0574-14.5 1.56-21.7 0.257-1.17 0.514-2.34 0.778-3.55 1.09-4.98 2.2-9.95 3.31-14.9 5.22-23.5 9.56-46.8 11-70.9 0.125-2.02 0.28-4.03 0.435-6.05 0.074-1.15 0.148-2.3 0.224-3.48 2.61-10.4 20.6-19.3 29.4-24.6 37.5-21.6 87.1-17.6 119 12.4z" fill="#FDFDFD"/>
<path transform="translate(1052 1084)" d="m0 0c7.97 4.54 14.1 12.2 20 19.1 2.07 2.4 4.19 4.75 6.31 7.1 3.87 4.3 7.71 8.62 11.5 13 0.437 0.494 0.873 0.989 1.32 1.5 1.48 1.68 2.96 3.37 4.43 5.06 0.472 0.53 0.945 1.06 1.43 1.61 6 6.96 7.39 13.4 7.17 22.5-0.612 5.84-2.91 9.18-7.22 13.1-5.42 3.8-10.5 4.97-17.1 4.19-5.88-1.39-10.9-3.84-16-7-3.27 3.27-6.54 6.55-9.8 9.84-1.84 1.85-3.67 3.69-5.51 5.54-0.912 0.92-1.82 1.84-2.76 2.79-4.58 4.6-9.2 9.06-14.1 13.3-2.78 2.4-5.44 4.92-8.11 7.43-5.7 5.3-11.6 10.3-17.7 15.1-1.05 0.848-2.11 1.7-3.16 2.54-18.6 14.9-38.2 28.5-58.8 40.5-0.614 0.359-1.23 0.718-1.86 1.09-46 26.8-97.3 43.5-150 49.9-0.831 0.104-1.66 0.209-2.52 0.316-62.6 7.45-126-1.73-187-17.9-0.971-0.253-1.94-0.505-2.94-0.765-9.53-2.68-18.4-7.13-23.9-15.6-2.1-6.31-1.72-12.2 1.06-18.2 3.55-6.36 8.56-11.2 15.6-13.4 8.51-1.47 18.8 3.02 26.9 5.29 89.9 24.6 189 25.6 274-15.7 0.706-0.34 1.41-0.681 2.14-1.03 4.65-2.26 9.26-4.6 13.9-6.97 0.708-0.361 1.42-0.722 2.15-1.09 9.37-4.78 18.2-9.9 26.9-15.9 1.87-1.23 3.75-2.46 5.62-3.69 12.5-8.34 24.5-17.1 35.8-27 2.11-1.83 4.26-3.62 6.41-5.4 7.27-6.08 14.3-12.4 21.1-18.9 0.476-0.455 0.953-0.91 1.44-1.38 3.41-3.26 6.81-6.55 10.2-9.85 1.16-1.14 2.33-2.27 3.51-3.39 1.67-1.6 3.31-3.22 4.95-4.84 0.511-0.483 1.02-0.966 1.55-1.46 1.59-1.53 1.59-1.53 3.37-4.07-0.112-3.13-0.538-4.44-2.52-6.84-0.917-0.82-0.917-0.82-1.85-1.66-4.57-4.32-7.22-8.28-7.83-14.6-0.154-7.21 1.63-13 6.57-18.5 6.87-6 16-8.93 24.8-5.61z" fill="#000100"/>
<path transform="translate(795,649)" d="m0 0c9.24 5.71 16.5 14.5 19.6 25 4.01 17.5 1.83 35.7-7.39 51.1-5.03 7.96-10.8 15.6-20.1 18.4-12 2.43-24.4-1.52-34.4-8.07-10.2-7.38-15.6-18-18.3-30.2-1.38-11.8-2.47-25.7 3.62-36.3 0.77-1.36 0.77-1.36 1.55-2.74 12.5-19.4 34.3-28.1 55.4-17.3z" fill="#000100"/>
<path transform="translate(353 647)" d="m0 0c11.2 6.18 18.3 16 22.3 28 1.08 3.91 1.58 7.65 1.75 11.7 0.0599 1.06 0.0599 1.06 0.121 2.14 0.561 18.4-6.72 35-19.1 48.3-5.46 5.17-10.3 6.68-17.8 7-12.7-0.416-23.5-5.62-33.3-13.4-10.6-11.5-12.4-27.3-12.3-42.2-0.0161-1.24-0.0322-2.49-0.0488-3.77-6.45e-4 -1.2-0.00129-2.41-0.00195-3.65-0.00298-1.08-0.00596-2.17-0.00903-3.29 1.14-9.48 9.92-18.3 17-24.3 2.41-1.73 4.85-3.28 7.41-4.78 0.777-0.504 1.55-1.01 2.36-1.53 10.1-5.95 21.1-4.67 31.6-0.148z" fill="#000100"/>
</svg>

